<?xml version="1.0" encoding="UTF-8" standalone="no"?><!-- Generator: Adobe Illustrator 16.0.0, SVG Export Plug-In . SVG Version: 6.00 Build 0)  -->

<svg xmlns:cc="http://creativecommons.org/ns#" xmlns:dc="http://purl.org/dc/elements/1.1/"
    xmlns:inkscape="http://www.inkscape.org/namespaces/inkscape" xmlns:rdf="http://www.w3.org/1999/02/22-rdf-syntax-ns#"
    xmlns:sodipodi="http://sodipodi.sourceforge.net/DTD/sodipodi-0.dtd"
    xmlns:xlink="http://www.w3.org/1999/xlink"
    enable-background="new 30 29.999 452 452" height="452px" id="Camada_1" version="1.1"
    viewBox="30 29.999 452 452" width="452px" x="0px" xmlns="http://www.w3.org/2000/svg"
    y="0px" inkscape:version="0.91 r13725" sodipodi:docname="notaFiscal-passed.svg"
    xml:space="preserve"><metadata
     id="metadata4729"><rdf:RDF><cc:Work
         rdf:about=""><dc:format>image/svg+xml</dc:format><dc:type
    rdf:resource="http://purl.org/dc/dcmitype/StillImage" /></cc:Work></rdf:RDF></metadata>
    <defs id="defs4727"><linearGradient
       id="linearGradient2366-9"><stop
         style="stop-color:#ffffff;stop-opacity:1;"
         id="stop2368-5"
         offset="0" /><stop style="stop-color:#ffffff;stop-opacity:0.21904762;"
        id="stop2374-2" offset="0.50000000" /><stop
        style="stop-color:#ffffff;stop-opacity:1.0000000;" id="stop2370-4" offset="1.0000000" /></linearGradient>
        <linearGradient id="linearGradient2865-3"><stop
         style="stop-color:#73d216;stop-opacity:1;"
         id="stop2867-5"
         offset="0" />
            <stop style="stop-color:#8ae234;stop-opacity:1;" id="stop11581-81"
                offset="0.25568181" />
            <stop style="stop-color:#73d216;stop-opacity:1;" id="stop11583-8" offset="0.59400827" />
            <stop style="stop-color:#8ae234;stop-opacity:1;" id="stop2869-1" offset="1" /></linearGradient>
        <linearGradient gradientTransform="matrix(0.65327499,0,0,0.77964034,-350.00215,46.874892)" gradientUnits="userSpaceOnUse"
            id="linearGradient7141" x1="689.26416"
            x2="1054.5129"
            y1="592.51782" y2="592.51782" inkscape:collect="always" xlink:href="#linearGradient2865-3" />
        <linearGradient gradientTransform="matrix(0.45143083,0,0,0.45143083,19.383964,234.92932)" gradientUnits="userSpaceOnUse"
            id="linearGradient7152" x1="195.75793"
            x2="618.58582" y1="638.53125"
            y2="638.53125" inkscape:collect="always" xlink:href="#linearGradient2366-9" /></defs>
    <sodipodi:namedview bordercolor="#666666" borderopacity="1" gridtolerance="10"
        guidetolerance="10" id="namedview4725" objecttolerance="10" pagecolor="#ffffff"
        showgrid="false" inkscape:current-layer="Camada_1" inkscape:cx="101.61567"
        inkscape:cy="228.79515" inkscape:pageopacity="0" inkscape:pageshadow="2" inkscape:window-height="705"
        inkscape:window-maximized="1" inkscape:window-width="1366" inkscape:window-x="-8"
        inkscape:window-y="-8" inkscape:zoom="1.1858407" />
    <polygon style="fill:#7bbfa5"
        id="polygon9" points="272.239,80.073 332.275,385.344 116.428,427.79 56.392,122.524 241.221,86.175 "
        transform="matrix(1.1910226,0.23618084,-0.23919248,1.1760267,48.906452,-98.651419)" />
    <polygon style="fill:#ffffff" id="polygon15"
        points="278.73,83.278 310.341,83.278 310.341,394.391 90.359,394.396 90.359,83.278 "
        transform="matrix(1.1717256,0,0,1.1717256,-13.804502,-31.93638)" />
    <g id="g17" transform="matrix(1.1748036,0,0,1.6790611,-13.066894,-77.947284)"><rect
       style="fill:#cdcccc"
       height="5.21"
       id="rect19"
       width="106.796"
       x="146.952"
       y="116.601" />
        <rect style="fill:#cdcccc" height="5.2080002" id="rect21" width="179.604" x="110.549"
            y="129.625" />
        <rect style="fill:#cdcccc" height="5.2069998" id="rect23" width="179.604" x="110.549"
            y="138.741" />
        <rect style="fill:#cdcccc" height="5.21" id="rect25" width="179.604" x="110.549"
            y="147.854" />
        <rect style="fill:#cdcccc" height="5.2090001" id="rect27" width="84.170998" x="110.549"
            y="156.97" /></g>
    <g id="g4598" transform="matrix(1.0156756,0,0,0.70705732,0.10987247,94.48264)"><rect
       style="fill:#cdcccc"
       height="2.6362591"
       id="rect31"
       width="195.77397"
       x="130.12102"
       y="295.06186" />
        <rect style="fill:#cdcccc" height="124.34591" id="rect33" width="2.6433082" x="128.79936"
            y="172.03761" />
        <rect style="fill:#cdcccc" height="124.34591" id="rect35" width="2.6409583" x="166.13579"
            y="172.03761" />
        <rect style="fill:#cdcccc" height="124.34591" id="rect37" width="2.637434" x="203.47223"
            y="172.03761" />
        <rect style="fill:#cdcccc" height="124.34591" id="rect39" width="2.637434" x="240.80865"
            y="172.03761" />
        <polygon style="fill:#cdcccc"
            id="polygon41" points="251.748,282.914 249.512,282.891 250.793,177.123 253.031,177.147 "
            transform="matrix(1.1748036,0,0,1.1748036,-14.977804,-35.973105)" />
        <rect style="fill:#cdcccc" height="124.34591" id="rect43" width="2.6409583" x="315.47684"
            y="172.03761" />
        <polygon style="fill:#cdcccc"
            id="polygon45" points="290.15,256.945 290.148,259.189 123.509,259.189 123.506,256.945 "
            transform="matrix(1.1748036,0,0,1.1748036,-14.977804,-35.973105)" />
        <polygon style="fill:#cdcccc"
            id="polygon47" points="290.127,233.314 290.117,235.554 123.504,234.35 123.514,232.112 "
            transform="matrix(1.1748036,0,0,1.1748036,-14.977804,-35.973105)" />
        <rect style="fill:#cdcccc" height="2.637434" id="rect49" width="195.76927" x="130.12102"
            y="207.53195" />
        <rect style="fill:#cdcccc" height="2.637434" id="rect51" width="195.77631" x="130.11748"
            y="178.35571" />
        <rect style="fill:#cdcccc" height="5.7753344" id="rect57" width="11.367399" x="124.43731"
            y="300.28738" />
        <rect style="fill:#cdcccc" height="5.7753344" id="rect59" width="11.367399" x="161.77139"
            y="300.28976" />
        <polygon style="fill:#cdcccc"
            id="polygon61" points="182.231,291.146 182.231,286.227 191.907,286.23 191.907,291.143 "
            transform="matrix(1.1748036,0,0,1.1748036,-14.977804,-35.973105)" />
        <polygon style="fill:#cdcccc"
            id="polygon63" points="214.01,291.146 214.01,286.227 223.686,286.23 223.686,291.143 "
            transform="matrix(1.1748036,0,0,1.1748036,-14.977804,-35.973105)" />
        <rect style="fill:#cdcccc" height="5.7753344" id="rect65" width="11.363875" x="273.78305"
            y="300.29092" />
        <rect style="fill:#cdcccc" height="5.7753344" id="rect67" width="11.363875" x="311.11594"
            y="300.29092" />
        <rect style="fill:#cdcccc" height="5.7788591" id="rect69" width="11.365049" x="114.89556"
            y="264.3161" />
        <rect style="fill:#cdcccc" height="5.7800336" id="rect71" width="11.365049" x="114.89674"
            y="235.13867" />
        <rect style="fill:#cdcccc" height="5.7800336" id="rect73" width="11.365049" x="114.89674"
            y="205.95891" />
        <rect style="fill:#cdcccc" height="5.7800336" id="rect75" width="11.367399" x="114.89438"
            y="180.17783" /></g>
    <g id="g77" transform="matrix(1.1748036,0,0,1.1748036,-12.389749,-31.15034)"><rect
       style="fill:#cdcccc"
       height="10.281"
       id="rect79"
       width="90.533997"
       x="114.152"
       y="375.40399" />
        <rect style="fill:#4e8eb4" height="58.882999" id="rect81" width="16.093" x="114.152"
            y="316.521" />
        <rect style="fill:#94c0e7" height="36.681999" id="rect83" width="16.096001" x="132.761"
            y="338.72501" />
        <rect style="fill:#a7cbec" height="24.257999" id="rect85" width="16.094999" x="151.37199"
            y="351.146" />
        <rect style="fill:#b9d8f2" height="35.634998" id="rect87" width="16.093" x="169.98199"
            y="339.771" />
        <rect style="fill:#cbe3f6" height="25.479" id="rect89" width="16.096001" x="188.591"
            y="349.927" /></g>
    <g id="g91" transform="matrix(1.1748036,0,0,1.1748036,-13.066894,-31.15034)"><circle
       style="fill:#cbe3f6"
       cx="254.10699"
       cy="349.642"
       id="circle93"
       r="36.043999" />
        <path style="fill:#b9d8f2" d="m 234.269,379.743 c -5.172,-3.421 -9.415,-8.136 -12.258,-13.683 l 32.097,-16.416 -19.839,30.099 z" id="path95"
            inkscape:connector-curvature="0" />
        <path style="fill:#a7cbec" d="m 222.011,366.063 c -2.525,-4.922 -3.948,-10.504 -3.948,-16.418 0,-11.524 5.41,-21.785 13.827,-28.389 l 22.218,28.389 -32.097,16.418 z" id="path97"
            inkscape:connector-curvature="0" />
        <path style="fill:#94c0e7" d="m 231.89,321.256 c 6.122,-4.798 13.835,-7.658 22.218,-7.658 l 0,36.047 -22.218,-28.389 z" id="path99"
            inkscape:connector-curvature="0" />
        <path style="fill:#4e8eb4" d="m 254.107,313.598 0,36.047 25.687,-25.279 c -6.538,-6.649 -15.632,-10.768 -25.687,-10.768 z" id="path101"
            inkscape:connector-curvature="0" /></g>
    <text style="font-style:normal;font-variant:normal;font-weight:bold;font-stretch:normal;font-size:50px;line-height:125%;font-family:'Segoe Print';-inkscape-font-specification:'Segoe Print Bold';letter-spacing:0px;word-spacing:0px;fill:#4d4d4d;fill-opacity:1;stroke:none;stroke-width:1px;stroke-linecap:butt;stroke-linejoin:miter;stroke-opacity:1"
        id="text4594"
        x="157.38828" y="116.91716" sodipodi:linespacing="125%" xml:space="preserve"><tspan
       style="font-style:normal;font-variant:normal;font-weight:bold;font-stretch:normal;font-size:50px;line-height:125%;font-family:'Segoe Print';-inkscape-font-specification:'Segoe Print Bold';fill:#4d4d4d"
       id="tspan4596"
       x="157.38828"
       y="116.91716"
       sodipodi:role="line">NFSe</tspan></text>
    <g id="g4761" transform="matrix(0.87169254,0,0,0.87169254,174.02809,-154.63194)"><path
       style="fill:url(#linearGradient7141);fill-opacity:1;fill-rule:evenodd;stroke:#4e9a06;stroke-width:7.92108488;stroke-linecap:butt;stroke-linejoin:miter;stroke-miterlimit:4;stroke-dasharray:none;stroke-opacity:1"
       d="m 95.366724,514.89899 c 0,0 20.966886,18.65733 38.656656,49.02532 21.87155,37.54692 25.3723,82.33223 24.50894,81.55943 l 32.11136,0 c 0,0 1.49699,-81.15732 37.93269,-138.8396 36.43571,-57.6823 116.0092,-142.77292 116.0092,-142.77292 0,0 -58.02187,33.38885 -114.6298,94.41777 -51.26878,55.27277 -58.7335,101.31837 -58.7335,101.31837 0,0 -1.00795,-3.60042 -14.08893,-19.89297 -15.23638,-18.9771 -60.240287,-35.94975 -61.766616,-24.8154 z"
       id="path2688"
       inkscape:connector-curvature="0"
       sodipodi:nodetypes="csccscscsc" />
        <path style="fill:none;stroke:url(#linearGradient7152);stroke-width:7.92125702;stroke-linecap:round;stroke-linejoin:miter;stroke-miterlimit:4;stroke-opacity:1"
            d="m 294.67212,408.44805 c -17.96338,14.46367 -38.64126,32.86259 -59.16565,54.98992 -25.04674,27.00282 -39.27656,51.6031 -47.24508,69.33695 -7.96848,17.73384 -11.37827,36.1429 -11.37827,36.1429 -0.57914,3.48308 0.10857,10.15138 -3.41611,10.3607 -3.52469,0.20932 -8.525,-14.19376 -9.51233,-17.58382 0.0406,0.10849 0.28874,0.77207 0.15516,0.50786 -0.14477,-0.28638 -0.5595,-1.04003 -1.39659,-2.34179 -1.67422,-2.60353 -5.05336,-7.39656 -11.48327,-15.40508 -6.03116,-7.51192 -20.48291,-16.54682 -32.88394,-21.40064 -2.3204,-0.90822 -4.52853,-1.62215 -6.63039,-2.24305 7.96848,8.79744 18.86268,22.18288 28.83514,39.3027 11.50562,19.75165 18.01963,40.9972 21.64047,57.3176 1.81046,8.1602 2.88943,15.08745 3.47037,20.03225 0.0221,0.18847 0.0217,0.26894 0.0424,0.45143 l 17.73279,0 c 1.16297,-20.85726 7.18168,-85.32168 38.75253,-135.30228 18.66631,-29.5511 47.91221,-65.55695 72.48287,-94.16565 z"
            id="path2697" inkscape:connector-curvature="0"
            sodipodi:nodetypes="csscccsssscsssccsc" /></g></svg>